<?xml version="1.0" encoding="iso-8859-1"?>
<!-- Generator: Adobe Illustrator 19.0.0, SVG Export Plug-In . SVG Version: 6.00 Build 0)  -->
<svg version="1.1" id="Capa_1" xmlns="http://www.w3.org/2000/svg" xmlns:xlink="http://www.w3.org/1999/xlink" x="0px" y="0px"
	 viewBox="0 0 512 512" style="enable-background:new 0 0 512 512;" xml:space="preserve">
<path style="fill:#4BB9E1;" d="M24,216.667c0-39.212,8.584-76.416,23.954-109.854C94.417,42.134,170.284,0,256,0
	c141.385,0,256,114.615,256,256c0,64.909-24.17,124.164-63.983,169.288C403.553,459.585,347.831,480,287.333,480
	C141.898,480,24,362.102,24,216.667z"/>
<path style="fill:#FFF5AF;" d="M53.929,98.826C20.137,142.208,0,196.75,0,256c0,141.385,114.615,256,256,256
	c59.25,0,113.792-20.137,157.174-53.929c78.229-100.433,71.182-245.754-21.155-338.091C299.683,27.644,154.362,20.597,53.929,98.826
	z M300.095,390.096c-49.206,49.206-128.985,49.206-178.191,0s-49.206-128.985,0-178.191s128.985-49.206,178.191,0
	S349.301,340.89,300.095,390.096z"/>
<path style="fill:#FFF091;" d="M345.1,390.096c-30.351,30.351-72.332,41.972-111.598,34.881
	c24.393-4.405,47.738-16.026,66.593-34.881c49.206-49.206,49.206-128.985,0-178.191c-18.855-18.855-42.201-30.476-66.593-34.881
	c39.265-7.091,81.247,4.53,111.598,34.881C394.306,261.11,394.306,340.89,345.1,390.096z M45.004,255.999
	c0-1.97,0.022-3.935,0.067-5.894c2.401-106.216,83.565-194.249,188.575-204.089c-62.863-5.547-127.384,12.047-179.717,52.811
	C20.137,142.208,0,196.75,0,256c0,141.385,114.615,256,256,256c7.607,0,15.135-0.337,22.573-0.987
	C147.63,499.662,45.003,389.903,45.004,255.999z"/>
<path style="fill:#FF640A;" d="M284.929,210.5c-5.85,0-9.461-6.393-6.443-11.404c0.679-1.128,1.347-2.203,1.988-3.21
	c0.016,0.01,0.043,0.01,0.06,0.019c-5.594-3.707-11.417-6.925-17.411-9.646L340.14,79.9c11.786,6.895,23.137,14.811,33.93,23.745
	c1.976-1.123,4.08-2.251,6.239-3.322c5.033-2.497,10.941,1.138,10.941,6.757c0,2.783-1.528,5.339-3.98,6.655
	c-0.356,0.191-0.721,0.387-1.092,0.587c1.969,1.85,3.917,3.735,5.841,5.659c15.889,15.889,29.242,33.351,40.081,51.879
	l-106.358,77.017c-6.084-13.398-14.627-25.953-25.646-36.973c-2.478-2.478-5.038-4.824-7.664-7.052
	c0.033,0.033,0.055,0.076,0.091,0.107c-0.356,0.583-0.742,1.22-1.146,1.892C290.015,209.112,287.568,210.5,284.929,210.5z
	 M300.095,390.096c-6.085,6.085-12.641,11.412-19.547,15.99c12.673,9.096,28.206,14.46,44.997,14.46
	c22.914,0,43.491-9.981,57.64-25.826l-57.444-41.597C319.658,366.521,311.115,379.076,300.095,390.096z M53.919,98.839
	c-19.978,25.651-35.184,55.199-44.273,87.319l86.612,62.719c6.084-13.399,14.628-25.954,25.647-36.973s23.574-19.563,36.973-25.646
	L81.86,79.9C72.233,85.531,62.898,91.847,53.919,98.839z M40.176,393.734c5.782,9.042,12.134,17.681,18.974,25.9
	c22.539-3.45,41.874-16.626,53.57-35.125c0.575-0.909,1.381-1.541,2.277-1.909c-7.745-9.095-13.993-19.028-18.738-29.478
	L40.176,393.734z"/>
<path style="fill:#DC550A;" d="M72.042,370.659c6.122,12.21,13.205,23.851,21.125,34.848c-9.821,7.238-21.419,12.2-34.017,14.128
	c-6.84-8.219-13.191-16.859-18.974-25.9L72.042,370.659z M103.228,109.409L81.86,79.9c-9.626,5.631-18.961,11.947-27.941,18.938
	c-19.978,25.651-35.184,55.199-44.273,87.319l39.242,28.417C56.698,174.311,75.956,137.997,103.228,109.409z"/>
<path style="fill:#B4EBFF;" d="M458.73,412.314C411.915,472.941,338.524,512,256,512s-155.915-39.059-202.73-99.686
	c25.041-1.894,46.748-15.715,59.45-35.804c1.932-3.056,6.448-3.056,8.38,0c13.691,21.654,37.842,36.036,65.355,36.036
	s51.665-14.382,65.355-36.036c1.932-3.056,6.448-3.056,8.38,0c13.691,21.654,37.842,36.036,65.355,36.036
	s51.665-14.382,65.355-36.036c1.932-3.056,6.448-3.056,8.38,0C411.982,396.599,433.69,410.42,458.73,412.314z"/>
<path style="fill:#6CD0F5;" d="M89.232,450.221c9.42-6.087,17.433-14.164,23.44-23.639c1.956-3.086,6.47-3.167,8.422-0.079
	c13.69,21.658,37.843,36.042,65.36,36.042c27.513,0,51.665-14.382,65.355-36.036c1.932-3.056,6.448-3.056,8.38,0
	c13.691,21.654,37.842,36.036,65.355,36.036c27.516,0,51.67-14.385,65.36-36.042c1.952-3.088,6.466-3.007,8.422,0.079
	c6.007,9.475,14.02,17.553,23.44,23.639C377.968,488.723,319.705,512,256,512S134.032,488.723,89.232,450.221z"/>
<path style="fill:#A03C19;" d="M423.628,94.509c-6.215,13.317-15.475,27.636-26.951,41.832
	c-6.442,7.969-35.948,38.265-42.488,44.804c-17.282,17.282-34.702,32.443-49.05,42.693c-19.119,13.655-29.491,16.651-35.802,10.339
	c-6.747-6.748,3.868-26.881,11.138-38.292c4.153,2.751,8.175,5.778,12.049,9.073c-2.908,4.76-7.807,13.132-8.647,14.713
	c10.66-5.736,31.828-21.255,59.707-49.133c27.878-27.878,43.397-49.047,49.133-59.707c-0.83,0.441-3.512,1.859-6.555,3.499
	c-3.95-3.71-7.993-7.262-12.113-10.674c11.153-6.339,26.436-12.891,32.312-8.133c11.152-20.647,13.381-36.209,7.933-41.657
	c-2.929-2.929-2.929-7.678,0-10.606c2.929-2.929,7.677-2.929,10.607,0C431.942,50.304,437.439,64.913,423.628,94.509z"/>
<g>
</g>
<g>
</g>
<g>
</g>
<g>
</g>
<g>
</g>
<g>
</g>
<g>
</g>
<g>
</g>
<g>
</g>
<g>
</g>
<g>
</g>
<g>
</g>
<g>
</g>
<g>
</g>
<g>
</g>
</svg>
