<svg id="Capa_1" enable-background="new 0 0 512 512" height="512" viewBox="0 0 512 512" width="512" xmlns="http://www.w3.org/2000/svg"><g><path d="m512 182.75c0 23.61-5.88 48.43-18.93 74.68l-237.07 217.91c-89.77-56.21-152.25-107.19-193-153.9l32.99-275.97c15.63-5.7 32.5-8.81 50.1-8.81 43.83 0 83.13 19.34 109.91 49.92 26.78-30.58 66.08-49.92 109.91-49.92 48.83 0 92.07 23.96 118.59 60.76l25.95 64.01c1.02 6.96 1.55 14.08 1.55 21.32z" fill="#00b3ff"/><path d="m512 182.75c0 23.61-5.88 48.43-18.93 74.68l-237.07 217.91v-388.76c26.78-30.58 66.08-49.92 109.91-49.92 48.83 0 92.07 23.96 118.59 60.76l25.95 64.01c1.02 6.96 1.55 14.08 1.55 21.32z" fill="#3a80e8"/><path d="m256 225.43c.082 17.06-14.017 31.847-32 32h-64.01c-17.67 0-32 14.33-32 32.01.088 17.045-14.032 31.853-32 32h-32.99c-44.4-50.89-63-96.71-63-138.69 0-63.08 39.98-116.83 95.99-137.28v51.95c0 17.68 14.33 32 32 32h32c17.68 0 32.01 14.33 32.01 32.01-.082 17.06 14.017 31.847 32 32 17.06-.082 31.847 14.017 32 32z" fill="#bde760"/><path d="m493.07 257.43c-31.44 63.29-104.49 134.9-237.07 217.91v-57.89c0-17.68-14.33-32.01-32-32.01-17.06.08-31.85-14.02-32-32-.08-17.05 14.02-31.85 32-32h64c17.68 0 32-14.33 32-32-.08-17.05 14.03-31.86 32.01-32.01z" fill="#bde760"/><g fill="#00d880"><path d="m493.07 257.43c-31.44 63.29-104.49 134.9-237.07 217.91v-153.9h32c17.68 0 32-14.33 32-32-.08-17.05 14.03-31.86 32.01-32.01z"/><path d="m510.45 161.43h-126.8c-17.48 0-31.64-14.17-31.64-31.65v-.71c0-17.48 14.16-31.65 31.64-31.65h100.85c13.37 18.55 22.5 40.36 25.95 64.01z"/></g></g></svg>